<svg width="20.383972" height="16.573425" viewBox="0 0 20.384 16.5734" fill="none" xmlns="http://www.w3.org/2000/svg" xmlns:xlink="http://www.w3.org/1999/xlink">
	<desc>
			Created with Pixso.
	</desc>
	<defs/>
	<path d="M20.38 1.96C19.61 2.3 18.8 2.52 17.98 2.62C18.85 2.1 19.5 1.28 19.82 0.31C19 0.79 18.1 1.14 17.16 1.32C16.53 0.65 15.7 0.2 14.79 0.05C13.88 -0.1 12.94 0.05 12.13 0.49C11.32 0.92 10.67 1.62 10.29 2.46C9.91 3.3 9.82 4.24 10.03 5.14C8.37 5.05 6.74 4.62 5.26 3.87C3.77 3.11 2.46 2.06 1.41 0.77C1.04 1.4 0.85 2.13 0.85 2.87C0.85 4.32 1.59 5.6 2.71 6.35C2.04 6.33 1.39 6.15 0.81 5.83L0.81 5.88C0.81 6.84 1.15 7.78 1.76 8.53C2.37 9.27 3.22 9.79 4.17 9.98C3.55 10.15 2.91 10.17 2.28 10.05C2.55 10.88 3.07 11.61 3.77 12.13C4.47 12.65 5.31 12.94 6.19 12.96C5.32 13.64 4.33 14.14 3.26 14.44C2.2 14.74 1.09 14.82 0 14.69C1.91 15.92 4.13 16.57 6.4 16.57C14.1 16.57 18.31 10.2 18.31 4.67C18.31 4.49 18.3 4.31 18.29 4.13C19.11 3.54 19.82 2.8 20.38 1.96L20.38 1.96Z" fill="#FFFFFF" fill-opacity="1.000000" fill-rule="nonzero"/>
</svg>
